# xmcd
#
# Track frame offsets:
# 150
# 20160
# 39855
# 58795
# 74320
# 100260
# 126245
# 143950
# 160805
# 192625
# 208435
# 229915
# 251940
#
# Disc length: 3501 seconds
#
#
# Revision: 5
# Processed by: cddbd v1.5.1PL2 Copyright (c) Steve Scherf et al.
# Submitted via: FreeRIP 2.945 
#
DISCID=cd0dab0d
DTITLE=Amigos - Amigos 2
DYEAR=1997
DGENRE=Country
TTITLE0=Chitaozinho e Xororo, Leandro e Leonardo, Zeze Di Camargo e Luciano-Viola Enluarada - Vamos Dar As Maos E Cantar
TTITLE1=Leandro e Leonardo-Eu Sou Desejo, Voce Eh Paixao (Right Here Waiting)
TTITLE2=Christian e Ralf, Leandro e Leonardo-Mia Gioconda (Minha Gioconda) - Horizonte Azul
TTITLE3=Zeze Di Camargo e Leandro-Nao Aprendi Dizer Adeus
TTITLE4=Zeze Di Camargo e Luciano-Preciso Ser Amado
TTITLE5=Gian e Giovane, Zeze Di Camargo e Luciano-1, 2, 3 - Menina Veneno
TTITLE6=Xororo e Luciano-Voce Vai Ver
TTITLE7=Chitaozinho e Xororo-Coracao Sertanejo
TTITLE8=Joao Paulo e Daniel, Chitaozinho e Xororo-Estou Apaixonado (Estoy Enamorado) - Evidencias
TTITLE9=Leandro e Chitaozinho-Pagina De Amigos
TTITLE10=Simone, Chitaozinho e Xororo, Leandro e Leonardo, Zeze Di Camargo e Luciano-Luar Do Sertao
TTITLE11=Chitaozinho e Xororo, Leandro e Leonardo, Zeze Di Camargo e Luciano-Romaria - Calix Bento
TTITLE12=Tema De Amigos (instrumental)
EXTD=
EXTT0=
EXTT1=
EXTT2=
EXTT3=
EXTT4=
EXTT5=
EXTT6=
EXTT7=
EXTT8=
EXTT9=
EXTT10=
EXTT11=
EXTT12=
PLAYORDER=
